<?xml version="1.0" encoding="utf-8"?>
<svg xmlns="http://www.w3.org/2000/svg" xmlns:xlink="http://www.w3.org/1999/xlink" width="600" height="400" viewBox="0 0 2400 1600">
<defs>
  <clipPath id="clip840">
    <rect x="0" y="0" width="2400" height="1600"/>
  </clipPath>
</defs>
<path clip-path="url(#clip840)" d="
M0 1600 L2400 1600 L2400 0 L0 0  Z
  " fill="#ffffff" fill-rule="evenodd" fill-opacity="1"/>
<defs>
  <clipPath id="clip841">
    <rect x="480" y="0" width="1681" height="1600"/>
  </clipPath>
</defs>
<path clip-path="url(#clip840)" d="
M147.108 1486.45 L2352.76 1486.45 L2352.76 47.2441 L147.108 47.2441  Z
  " fill="#ffffff" fill-rule="evenodd" fill-opacity="1"/>
<defs>
  <clipPath id="clip842">
    <rect x="147" y="47" width="2207" height="1440"/>
  </clipPath>
</defs>
<polyline clip-path="url(#clip842)" style="stroke:#000000; stroke-linecap:butt; stroke-linejoin:round; stroke-width:2; stroke-opacity:0.1; fill:none" points="
  209.532,1486.45 209.532,47.2441 
  "/>
<polyline clip-path="url(#clip842)" style="stroke:#000000; stroke-linecap:butt; stroke-linejoin:round; stroke-width:2; stroke-opacity:0.1; fill:none" points="
  625.692,1486.45 625.692,47.2441 
  "/>
<polyline clip-path="url(#clip842)" style="stroke:#000000; stroke-linecap:butt; stroke-linejoin:round; stroke-width:2; stroke-opacity:0.1; fill:none" points="
  1041.85,1486.45 1041.85,47.2441 
  "/>
<polyline clip-path="url(#clip842)" style="stroke:#000000; stroke-linecap:butt; stroke-linejoin:round; stroke-width:2; stroke-opacity:0.1; fill:none" points="
  1458.01,1486.45 1458.01,47.2441 
  "/>
<polyline clip-path="url(#clip842)" style="stroke:#000000; stroke-linecap:butt; stroke-linejoin:round; stroke-width:2; stroke-opacity:0.1; fill:none" points="
  1874.17,1486.45 1874.17,47.2441 
  "/>
<polyline clip-path="url(#clip842)" style="stroke:#000000; stroke-linecap:butt; stroke-linejoin:round; stroke-width:2; stroke-opacity:0.1; fill:none" points="
  2290.33,1486.45 2290.33,47.2441 
  "/>
<polyline clip-path="url(#clip840)" style="stroke:#000000; stroke-linecap:butt; stroke-linejoin:round; stroke-width:4; stroke-opacity:1; fill:none" points="
  147.108,1486.45 2352.76,1486.45 
  "/>
<polyline clip-path="url(#clip840)" style="stroke:#000000; stroke-linecap:butt; stroke-linejoin:round; stroke-width:4; stroke-opacity:1; fill:none" points="
  209.532,1486.45 209.532,1467.55 
  "/>
<polyline clip-path="url(#clip840)" style="stroke:#000000; stroke-linecap:butt; stroke-linejoin:round; stroke-width:4; stroke-opacity:1; fill:none" points="
  625.692,1486.45 625.692,1467.55 
  "/>
<polyline clip-path="url(#clip840)" style="stroke:#000000; stroke-linecap:butt; stroke-linejoin:round; stroke-width:4; stroke-opacity:1; fill:none" points="
  1041.85,1486.45 1041.85,1467.55 
  "/>
<polyline clip-path="url(#clip840)" style="stroke:#000000; stroke-linecap:butt; stroke-linejoin:round; stroke-width:4; stroke-opacity:1; fill:none" points="
  1458.01,1486.45 1458.01,1467.55 
  "/>
<polyline clip-path="url(#clip840)" style="stroke:#000000; stroke-linecap:butt; stroke-linejoin:round; stroke-width:4; stroke-opacity:1; fill:none" points="
  1874.17,1486.45 1874.17,1467.55 
  "/>
<polyline clip-path="url(#clip840)" style="stroke:#000000; stroke-linecap:butt; stroke-linejoin:round; stroke-width:4; stroke-opacity:1; fill:none" points="
  2290.33,1486.45 2290.33,1467.55 
  "/>
<path clip-path="url(#clip840)" d="M179.474 1532.02 L209.15 1532.02 L209.15 1535.95 L179.474 1535.95 L179.474 1532.02 Z" fill="#000000" fill-rule="evenodd" fill-opacity="1" /><path clip-path="url(#clip840)" d="M223.27 1544.91 L239.589 1544.91 L239.589 1548.85 L217.645 1548.85 L217.645 1544.91 Q220.307 1542.16 224.89 1537.53 Q229.497 1532.88 230.677 1531.53 Q232.923 1529.01 233.802 1527.27 Q234.705 1525.51 234.705 1523.82 Q234.705 1521.07 232.761 1519.33 Q230.839 1517.6 227.737 1517.6 Q225.538 1517.6 223.085 1518.36 Q220.654 1519.13 217.876 1520.68 L217.876 1515.95 Q220.7 1514.82 223.154 1514.24 Q225.608 1513.66 227.645 1513.66 Q233.015 1513.66 236.21 1516.35 Q239.404 1519.03 239.404 1523.52 Q239.404 1525.65 238.594 1527.57 Q237.807 1529.47 235.7 1532.07 Q235.122 1532.74 232.02 1535.95 Q228.918 1539.15 223.27 1544.91 Z" fill="#000000" fill-rule="evenodd" fill-opacity="1" /><path clip-path="url(#clip840)" d="M595.449 1532.02 L625.124 1532.02 L625.124 1535.95 L595.449 1535.95 L595.449 1532.02 Z" fill="#000000" fill-rule="evenodd" fill-opacity="1" /><path clip-path="url(#clip840)" d="M636.027 1544.91 L643.666 1544.91 L643.666 1518.55 L635.356 1520.21 L635.356 1515.95 L643.62 1514.29 L648.296 1514.29 L648.296 1544.91 L655.935 1544.91 L655.935 1548.85 L636.027 1548.85 L636.027 1544.91 Z" fill="#000000" fill-rule="evenodd" fill-opacity="1" /><path clip-path="url(#clip840)" d="M1041.85 1517.37 Q1038.24 1517.37 1036.41 1520.93 Q1034.61 1524.47 1034.61 1531.6 Q1034.61 1538.71 1036.41 1542.27 Q1038.24 1545.82 1041.85 1545.82 Q1045.49 1545.82 1047.29 1542.27 Q1049.12 1538.71 1049.12 1531.6 Q1049.12 1524.47 1047.29 1520.93 Q1045.49 1517.37 1041.85 1517.37 M1041.85 1513.66 Q1047.66 1513.66 1050.72 1518.27 Q1053.8 1522.85 1053.8 1531.6 Q1053.8 1540.33 1050.72 1544.94 Q1047.66 1549.52 1041.85 1549.52 Q1036.04 1549.52 1032.96 1544.94 Q1029.91 1540.33 1029.91 1531.6 Q1029.91 1522.85 1032.96 1518.27 Q1036.04 1513.66 1041.85 1513.66 Z" fill="#000000" fill-rule="evenodd" fill-opacity="1" /><path clip-path="url(#clip840)" d="M1448.39 1544.91 L1456.03 1544.91 L1456.03 1518.55 L1447.72 1520.21 L1447.72 1515.95 L1455.99 1514.29 L1460.66 1514.29 L1460.66 1544.91 L1468.3 1544.91 L1468.3 1548.85 L1448.39 1548.85 L1448.39 1544.91 Z" fill="#000000" fill-rule="evenodd" fill-opacity="1" /><path clip-path="url(#clip840)" d="M1868.82 1544.91 L1885.14 1544.91 L1885.14 1548.85 L1863.2 1548.85 L1863.2 1544.91 Q1865.86 1542.16 1870.44 1537.53 Q1875.05 1532.88 1876.23 1531.53 Q1878.48 1529.01 1879.36 1527.27 Q1880.26 1525.51 1880.26 1523.82 Q1880.26 1521.07 1878.32 1519.33 Q1876.39 1517.6 1873.29 1517.6 Q1871.09 1517.6 1868.64 1518.36 Q1866.21 1519.13 1863.43 1520.68 L1863.43 1515.95 Q1866.26 1514.82 1868.71 1514.24 Q1871.16 1513.66 1873.2 1513.66 Q1878.57 1513.66 1881.76 1516.35 Q1884.96 1519.03 1884.96 1523.52 Q1884.96 1525.65 1884.15 1527.57 Q1883.36 1529.47 1881.26 1532.07 Q1880.68 1532.74 1877.57 1535.95 Q1874.47 1539.15 1868.82 1544.91 Z" fill="#000000" fill-rule="evenodd" fill-opacity="1" /><path clip-path="url(#clip840)" d="M2294.58 1530.21 Q2297.94 1530.93 2299.81 1533.2 Q2301.71 1535.47 2301.71 1538.8 Q2301.71 1543.92 2298.19 1546.72 Q2294.67 1549.52 2288.19 1549.52 Q2286.01 1549.52 2283.7 1549.08 Q2281.41 1548.66 2278.95 1547.81 L2278.95 1543.29 Q2280.9 1544.43 2283.21 1545.01 Q2285.53 1545.58 2288.05 1545.58 Q2292.45 1545.58 2294.74 1543.85 Q2297.06 1542.11 2297.06 1538.8 Q2297.06 1535.75 2294.9 1534.03 Q2292.77 1532.3 2288.95 1532.3 L2284.93 1532.3 L2284.93 1528.45 L2289.14 1528.45 Q2292.59 1528.45 2294.42 1527.09 Q2296.25 1525.7 2296.25 1523.11 Q2296.25 1520.45 2294.35 1519.03 Q2292.47 1517.6 2288.95 1517.6 Q2287.03 1517.6 2284.83 1518.01 Q2282.64 1518.43 2280 1519.31 L2280 1515.14 Q2282.66 1514.4 2284.97 1514.03 Q2287.31 1513.66 2289.37 1513.66 Q2294.7 1513.66 2297.8 1516.09 Q2300.9 1518.5 2300.9 1522.62 Q2300.9 1525.49 2299.26 1527.48 Q2297.61 1529.45 2294.58 1530.21 Z" fill="#000000" fill-rule="evenodd" fill-opacity="1" /><polyline clip-path="url(#clip842)" style="stroke:#000000; stroke-linecap:butt; stroke-linejoin:round; stroke-width:2; stroke-opacity:0.1; fill:none" points="
  147.108,1461.99 2352.76,1461.99 
  "/>
<polyline clip-path="url(#clip842)" style="stroke:#000000; stroke-linecap:butt; stroke-linejoin:round; stroke-width:2; stroke-opacity:0.1; fill:none" points="
  147.108,1109.38 2352.76,1109.38 
  "/>
<polyline clip-path="url(#clip842)" style="stroke:#000000; stroke-linecap:butt; stroke-linejoin:round; stroke-width:2; stroke-opacity:0.1; fill:none" points="
  147.108,756.765 2352.76,756.765 
  "/>
<polyline clip-path="url(#clip842)" style="stroke:#000000; stroke-linecap:butt; stroke-linejoin:round; stroke-width:2; stroke-opacity:0.1; fill:none" points="
  147.108,404.15 2352.76,404.15 
  "/>
<polyline clip-path="url(#clip842)" style="stroke:#000000; stroke-linecap:butt; stroke-linejoin:round; stroke-width:2; stroke-opacity:0.1; fill:none" points="
  147.108,51.5352 2352.76,51.5352 
  "/>
<polyline clip-path="url(#clip840)" style="stroke:#000000; stroke-linecap:butt; stroke-linejoin:round; stroke-width:4; stroke-opacity:1; fill:none" points="
  147.108,1486.45 147.108,47.2441 
  "/>
<polyline clip-path="url(#clip840)" style="stroke:#000000; stroke-linecap:butt; stroke-linejoin:round; stroke-width:4; stroke-opacity:1; fill:none" points="
  147.108,1461.99 166.005,1461.99 
  "/>
<polyline clip-path="url(#clip840)" style="stroke:#000000; stroke-linecap:butt; stroke-linejoin:round; stroke-width:4; stroke-opacity:1; fill:none" points="
  147.108,1109.38 166.005,1109.38 
  "/>
<polyline clip-path="url(#clip840)" style="stroke:#000000; stroke-linecap:butt; stroke-linejoin:round; stroke-width:4; stroke-opacity:1; fill:none" points="
  147.108,756.765 166.005,756.765 
  "/>
<polyline clip-path="url(#clip840)" style="stroke:#000000; stroke-linecap:butt; stroke-linejoin:round; stroke-width:4; stroke-opacity:1; fill:none" points="
  147.108,404.15 166.005,404.15 
  "/>
<polyline clip-path="url(#clip840)" style="stroke:#000000; stroke-linecap:butt; stroke-linejoin:round; stroke-width:4; stroke-opacity:1; fill:none" points="
  147.108,51.5352 166.005,51.5352 
  "/>
<path clip-path="url(#clip840)" d="M50.9921 1462.45 L80.6679 1462.45 L80.6679 1466.38 L50.9921 1466.38 L50.9921 1462.45 Z" fill="#000000" fill-rule="evenodd" fill-opacity="1" /><path clip-path="url(#clip840)" d="M94.7882 1475.34 L111.108 1475.34 L111.108 1479.27 L89.1632 1479.27 L89.1632 1475.34 Q91.8252 1472.59 96.4085 1467.96 Q101.015 1463.3 102.196 1461.96 Q104.441 1459.44 105.321 1457.7 Q106.223 1455.94 106.223 1454.25 Q106.223 1451.5 104.279 1449.76 Q102.358 1448.02 99.2558 1448.02 Q97.0567 1448.02 94.603 1448.79 Q92.1725 1449.55 89.3947 1451.1 L89.3947 1446.38 Q92.2188 1445.25 94.6724 1444.67 Q97.1261 1444.09 99.1632 1444.09 Q104.534 1444.09 107.728 1446.77 Q110.922 1449.46 110.922 1453.95 Q110.922 1456.08 110.112 1458 Q109.325 1459.9 107.219 1462.49 Q106.64 1463.16 103.538 1466.38 Q100.436 1469.58 94.7882 1475.34 Z" fill="#000000" fill-rule="evenodd" fill-opacity="1" /><path clip-path="url(#clip840)" d="M99.1632 1095.18 Q95.5521 1095.18 93.7234 1098.74 Q91.9178 1102.29 91.9178 1109.41 Q91.9178 1116.52 93.7234 1120.09 Q95.5521 1123.63 99.1632 1123.63 Q102.797 1123.63 104.603 1120.09 Q106.432 1116.52 106.432 1109.41 Q106.432 1102.29 104.603 1098.74 Q102.797 1095.18 99.1632 1095.18 M99.1632 1091.47 Q104.973 1091.47 108.029 1096.08 Q111.108 1100.66 111.108 1109.41 Q111.108 1118.14 108.029 1122.75 Q104.973 1127.33 99.1632 1127.33 Q93.353 1127.33 90.2743 1122.75 Q87.2188 1118.14 87.2188 1109.41 Q87.2188 1100.66 90.2743 1096.08 Q93.353 1091.47 99.1632 1091.47 Z" fill="#000000" fill-rule="evenodd" fill-opacity="1" /><path clip-path="url(#clip840)" d="M94.7882 770.11 L111.108 770.11 L111.108 774.045 L89.1632 774.045 L89.1632 770.11 Q91.8252 767.355 96.4085 762.726 Q101.015 758.073 102.196 756.73 Q104.441 754.207 105.321 752.471 Q106.223 750.712 106.223 749.022 Q106.223 746.267 104.279 744.531 Q102.358 742.795 99.2558 742.795 Q97.0567 742.795 94.603 743.559 Q92.1725 744.323 89.3947 745.874 L89.3947 741.152 Q92.2188 740.017 94.6724 739.439 Q97.1261 738.86 99.1632 738.86 Q104.534 738.86 107.728 741.545 Q110.922 744.23 110.922 748.721 Q110.922 750.851 110.112 752.772 Q109.325 754.67 107.219 757.263 Q106.64 757.934 103.538 761.152 Q100.436 764.346 94.7882 770.11 Z" fill="#000000" fill-rule="evenodd" fill-opacity="1" /><path clip-path="url(#clip840)" d="M101.524 390.944 L89.7188 409.393 L101.524 409.393 L101.524 390.944 M100.297 386.87 L106.177 386.87 L106.177 409.393 L111.108 409.393 L111.108 413.282 L106.177 413.282 L106.177 421.43 L101.524 421.43 L101.524 413.282 L85.9225 413.282 L85.9225 408.768 L100.297 386.87 Z" fill="#000000" fill-rule="evenodd" fill-opacity="1" /><path clip-path="url(#clip840)" d="M99.5798 49.6718 Q96.4317 49.6718 94.5799 51.8246 Q92.7512 53.9774 92.7512 57.7273 Q92.7512 61.4542 94.5799 63.6301 Q96.4317 65.7828 99.5798 65.7828 Q102.728 65.7828 104.557 63.6301 Q106.408 61.4542 106.408 57.7273 Q106.408 53.9774 104.557 51.8246 Q102.728 49.6718 99.5798 49.6718 M108.862 35.0191 L108.862 39.2784 Q107.103 38.445 105.297 38.0052 Q103.515 37.5654 101.756 37.5654 Q97.1261 37.5654 94.6724 40.6904 Q92.2419 43.8154 91.8947 50.1348 Q93.2604 48.1209 95.3206 47.0561 Q97.3808 45.9681 99.8576 45.9681 Q105.066 45.9681 108.075 49.1394 Q111.108 52.2875 111.108 57.7273 Q111.108 63.0514 107.959 66.269 Q104.811 69.4865 99.5798 69.4865 Q93.5845 69.4865 90.4132 64.9032 Q87.2419 60.2968 87.2419 51.57 Q87.2419 43.3756 91.1308 38.5145 Q95.0197 33.6302 101.571 33.6302 Q103.33 33.6302 105.112 33.9775 Q106.918 34.3247 108.862 35.0191 Z" fill="#000000" fill-rule="evenodd" fill-opacity="1" /><circle clip-path="url(#clip842)" cx="209.532" cy="285.251" r="14" fill="#009af9" fill-rule="evenodd" fill-opacity="1" stroke="#000000" stroke-opacity="1" stroke-width="3.2"/>
<circle clip-path="url(#clip842)" cx="251.148" cy="450.193" r="14" fill="#009af9" fill-rule="evenodd" fill-opacity="1" stroke="#000000" stroke-opacity="1" stroke-width="3.2"/>
<circle clip-path="url(#clip842)" cx="292.764" cy="726.689" r="14" fill="#009af9" fill-rule="evenodd" fill-opacity="1" stroke="#000000" stroke-opacity="1" stroke-width="3.2"/>
<circle clip-path="url(#clip842)" cx="334.38" cy="888.16" r="14" fill="#009af9" fill-rule="evenodd" fill-opacity="1" stroke="#000000" stroke-opacity="1" stroke-width="3.2"/>
<circle clip-path="url(#clip842)" cx="375.996" cy="870.977" r="14" fill="#009af9" fill-rule="evenodd" fill-opacity="1" stroke="#000000" stroke-opacity="1" stroke-width="3.2"/>
<circle clip-path="url(#clip842)" cx="417.612" cy="943.797" r="14" fill="#009af9" fill-rule="evenodd" fill-opacity="1" stroke="#000000" stroke-opacity="1" stroke-width="3.2"/>
<circle clip-path="url(#clip842)" cx="459.228" cy="1085.98" r="14" fill="#009af9" fill-rule="evenodd" fill-opacity="1" stroke="#000000" stroke-opacity="1" stroke-width="3.2"/>
<circle clip-path="url(#clip842)" cx="500.844" cy="1163.02" r="14" fill="#009af9" fill-rule="evenodd" fill-opacity="1" stroke="#000000" stroke-opacity="1" stroke-width="3.2"/>
<circle clip-path="url(#clip842)" cx="542.46" cy="1445.72" r="14" fill="#009af9" fill-rule="evenodd" fill-opacity="1" stroke="#000000" stroke-opacity="1" stroke-width="3.2"/>
<circle clip-path="url(#clip842)" cx="584.076" cy="1302.2" r="14" fill="#009af9" fill-rule="evenodd" fill-opacity="1" stroke="#000000" stroke-opacity="1" stroke-width="3.2"/>
<circle clip-path="url(#clip842)" cx="625.692" cy="1268.08" r="14" fill="#009af9" fill-rule="evenodd" fill-opacity="1" stroke="#000000" stroke-opacity="1" stroke-width="3.2"/>
<circle clip-path="url(#clip842)" cx="667.308" cy="1166.17" r="14" fill="#009af9" fill-rule="evenodd" fill-opacity="1" stroke="#000000" stroke-opacity="1" stroke-width="3.2"/>
<circle clip-path="url(#clip842)" cx="708.924" cy="1263.4" r="14" fill="#009af9" fill-rule="evenodd" fill-opacity="1" stroke="#000000" stroke-opacity="1" stroke-width="3.2"/>
<circle clip-path="url(#clip842)" cx="750.54" cy="1249.8" r="14" fill="#009af9" fill-rule="evenodd" fill-opacity="1" stroke="#000000" stroke-opacity="1" stroke-width="3.2"/>
<circle clip-path="url(#clip842)" cx="792.156" cy="1184.63" r="14" fill="#009af9" fill-rule="evenodd" fill-opacity="1" stroke="#000000" stroke-opacity="1" stroke-width="3.2"/>
<circle clip-path="url(#clip842)" cx="833.772" cy="1174" r="14" fill="#009af9" fill-rule="evenodd" fill-opacity="1" stroke="#000000" stroke-opacity="1" stroke-width="3.2"/>
<circle clip-path="url(#clip842)" cx="875.388" cy="1154.82" r="14" fill="#009af9" fill-rule="evenodd" fill-opacity="1" stroke="#000000" stroke-opacity="1" stroke-width="3.2"/>
<circle clip-path="url(#clip842)" cx="917.004" cy="1084.53" r="14" fill="#009af9" fill-rule="evenodd" fill-opacity="1" stroke="#000000" stroke-opacity="1" stroke-width="3.2"/>
<circle clip-path="url(#clip842)" cx="958.62" cy="1055.22" r="14" fill="#009af9" fill-rule="evenodd" fill-opacity="1" stroke="#000000" stroke-opacity="1" stroke-width="3.2"/>
<circle clip-path="url(#clip842)" cx="1000.24" cy="1036.27" r="14" fill="#009af9" fill-rule="evenodd" fill-opacity="1" stroke="#000000" stroke-opacity="1" stroke-width="3.2"/>
<circle clip-path="url(#clip842)" cx="1041.85" cy="860.556" r="14" fill="#009af9" fill-rule="evenodd" fill-opacity="1" stroke="#000000" stroke-opacity="1" stroke-width="3.2"/>
<circle clip-path="url(#clip842)" cx="1083.47" cy="870.878" r="14" fill="#009af9" fill-rule="evenodd" fill-opacity="1" stroke="#000000" stroke-opacity="1" stroke-width="3.2"/>
<circle clip-path="url(#clip842)" cx="1125.08" cy="865.298" r="14" fill="#009af9" fill-rule="evenodd" fill-opacity="1" stroke="#000000" stroke-opacity="1" stroke-width="3.2"/>
<circle clip-path="url(#clip842)" cx="1166.7" cy="723.06" r="14" fill="#009af9" fill-rule="evenodd" fill-opacity="1" stroke="#000000" stroke-opacity="1" stroke-width="3.2"/>
<circle clip-path="url(#clip842)" cx="1208.32" cy="736.41" r="14" fill="#009af9" fill-rule="evenodd" fill-opacity="1" stroke="#000000" stroke-opacity="1" stroke-width="3.2"/>
<circle clip-path="url(#clip842)" cx="1249.93" cy="794.718" r="14" fill="#009af9" fill-rule="evenodd" fill-opacity="1" stroke="#000000" stroke-opacity="1" stroke-width="3.2"/>
<circle clip-path="url(#clip842)" cx="1291.55" cy="831.984" r="14" fill="#009af9" fill-rule="evenodd" fill-opacity="1" stroke="#000000" stroke-opacity="1" stroke-width="3.2"/>
<circle clip-path="url(#clip842)" cx="1333.16" cy="713.818" r="14" fill="#009af9" fill-rule="evenodd" fill-opacity="1" stroke="#000000" stroke-opacity="1" stroke-width="3.2"/>
<circle clip-path="url(#clip842)" cx="1374.78" cy="761.832" r="14" fill="#009af9" fill-rule="evenodd" fill-opacity="1" stroke="#000000" stroke-opacity="1" stroke-width="3.2"/>
<circle clip-path="url(#clip842)" cx="1416.4" cy="600.19" r="14" fill="#009af9" fill-rule="evenodd" fill-opacity="1" stroke="#000000" stroke-opacity="1" stroke-width="3.2"/>
<circle clip-path="url(#clip842)" cx="1458.01" cy="665.117" r="14" fill="#009af9" fill-rule="evenodd" fill-opacity="1" stroke="#000000" stroke-opacity="1" stroke-width="3.2"/>
<circle clip-path="url(#clip842)" cx="1499.63" cy="727.005" r="14" fill="#009af9" fill-rule="evenodd" fill-opacity="1" stroke="#000000" stroke-opacity="1" stroke-width="3.2"/>
<circle clip-path="url(#clip842)" cx="1541.24" cy="830.551" r="14" fill="#009af9" fill-rule="evenodd" fill-opacity="1" stroke="#000000" stroke-opacity="1" stroke-width="3.2"/>
<circle clip-path="url(#clip842)" cx="1582.86" cy="669.378" r="14" fill="#009af9" fill-rule="evenodd" fill-opacity="1" stroke="#000000" stroke-opacity="1" stroke-width="3.2"/>
<circle clip-path="url(#clip842)" cx="1624.48" cy="701.168" r="14" fill="#009af9" fill-rule="evenodd" fill-opacity="1" stroke="#000000" stroke-opacity="1" stroke-width="3.2"/>
<circle clip-path="url(#clip842)" cx="1666.09" cy="786.726" r="14" fill="#009af9" fill-rule="evenodd" fill-opacity="1" stroke="#000000" stroke-opacity="1" stroke-width="3.2"/>
<circle clip-path="url(#clip842)" cx="1707.71" cy="671.127" r="14" fill="#009af9" fill-rule="evenodd" fill-opacity="1" stroke="#000000" stroke-opacity="1" stroke-width="3.2"/>
<circle clip-path="url(#clip842)" cx="1749.32" cy="680.133" r="14" fill="#009af9" fill-rule="evenodd" fill-opacity="1" stroke="#000000" stroke-opacity="1" stroke-width="3.2"/>
<circle clip-path="url(#clip842)" cx="1790.94" cy="887.38" r="14" fill="#009af9" fill-rule="evenodd" fill-opacity="1" stroke="#000000" stroke-opacity="1" stroke-width="3.2"/>
<circle clip-path="url(#clip842)" cx="1832.56" cy="838.44" r="14" fill="#009af9" fill-rule="evenodd" fill-opacity="1" stroke="#000000" stroke-opacity="1" stroke-width="3.2"/>
<circle clip-path="url(#clip842)" cx="1874.17" cy="799.132" r="14" fill="#009af9" fill-rule="evenodd" fill-opacity="1" stroke="#000000" stroke-opacity="1" stroke-width="3.2"/>
<circle clip-path="url(#clip842)" cx="1915.79" cy="655.013" r="14" fill="#009af9" fill-rule="evenodd" fill-opacity="1" stroke="#000000" stroke-opacity="1" stroke-width="3.2"/>
<circle clip-path="url(#clip842)" cx="1957.4" cy="770.172" r="14" fill="#009af9" fill-rule="evenodd" fill-opacity="1" stroke="#000000" stroke-opacity="1" stroke-width="3.2"/>
<circle clip-path="url(#clip842)" cx="1999.02" cy="793.411" r="14" fill="#009af9" fill-rule="evenodd" fill-opacity="1" stroke="#000000" stroke-opacity="1" stroke-width="3.2"/>
<circle clip-path="url(#clip842)" cx="2040.64" cy="788.03" r="14" fill="#009af9" fill-rule="evenodd" fill-opacity="1" stroke="#000000" stroke-opacity="1" stroke-width="3.2"/>
<circle clip-path="url(#clip842)" cx="2082.25" cy="773.928" r="14" fill="#009af9" fill-rule="evenodd" fill-opacity="1" stroke="#000000" stroke-opacity="1" stroke-width="3.2"/>
<circle clip-path="url(#clip842)" cx="2123.87" cy="530.299" r="14" fill="#009af9" fill-rule="evenodd" fill-opacity="1" stroke="#000000" stroke-opacity="1" stroke-width="3.2"/>
<circle clip-path="url(#clip842)" cx="2165.48" cy="543.125" r="14" fill="#009af9" fill-rule="evenodd" fill-opacity="1" stroke="#000000" stroke-opacity="1" stroke-width="3.2"/>
<circle clip-path="url(#clip842)" cx="2207.1" cy="521.3" r="14" fill="#009af9" fill-rule="evenodd" fill-opacity="1" stroke="#000000" stroke-opacity="1" stroke-width="3.2"/>
<circle clip-path="url(#clip842)" cx="2248.72" cy="261.922" r="14" fill="#009af9" fill-rule="evenodd" fill-opacity="1" stroke="#000000" stroke-opacity="1" stroke-width="3.2"/>
<circle clip-path="url(#clip842)" cx="2290.33" cy="87.9763" r="14" fill="#009af9" fill-rule="evenodd" fill-opacity="1" stroke="#000000" stroke-opacity="1" stroke-width="3.2"/>
<polyline clip-path="url(#clip842)" style="stroke:#e26f46; stroke-linecap:butt; stroke-linejoin:round; stroke-width:4; stroke-opacity:1; fill:none" points="
  209.532,240.794 251.148,474.231 292.764,670.784 334.38,833.652 375.996,965.907 417.612,1070.5 459.228,1150.23 500.844,1207.81 542.46,1245.8 584.076,1266.63 
  625.692,1272.6 667.308,1265.91 708.924,1248.61 750.54,1222.62 792.156,1189.74 833.772,1151.65 875.388,1109.9 917.004,1065.9 958.62,1020.94 1000.24,976.187 
  1041.85,932.681 1083.47,891.329 1125.08,852.914 1166.7,818.092 1208.32,787.39 1249.93,761.21 1291.55,739.826 1333.16,723.383 1374.78,711.902 1416.4,705.274 
  1458.01,703.264 1499.63,705.511 1541.24,711.524 1582.86,720.687 1624.48,732.256 1666.09,745.359 1707.71,758.999 1749.32,772.05 1790.94,783.259 1832.56,791.247 
  1874.17,794.505 1915.79,791.4 1957.4,780.171 1999.02,758.927 2040.64,725.654 2082.25,678.208 2123.87,614.319 2165.48,531.589 2207.1,427.493 2248.72,299.379 
  2290.33,144.468 
  "/>
<path clip-path="url(#clip840)" d="
M1986.8 250.738 L2279.23 250.738 L2279.23 95.2176 L1986.8 95.2176  Z
  " fill="#ffffff" fill-rule="evenodd" fill-opacity="1"/>
<polyline clip-path="url(#clip840)" style="stroke:#000000; stroke-linecap:butt; stroke-linejoin:round; stroke-width:4; stroke-opacity:1; fill:none" points="
  1986.8,250.738 2279.23,250.738 2279.23,95.2176 1986.8,95.2176 1986.8,250.738 
  "/>
<circle clip-path="url(#clip840)" cx="2082.8" cy="147.058" r="23" fill="#009af9" fill-rule="evenodd" fill-opacity="1" stroke="#000000" stroke-opacity="1" stroke-width="5.12"/>
<path clip-path="url(#clip840)" d="M2192.65 166.745 Q2190.84 171.375 2189.13 172.787 Q2187.42 174.199 2184.54 174.199 L2181.14 174.199 L2181.14 170.634 L2183.64 170.634 Q2185.4 170.634 2186.37 169.8 Q2187.35 168.967 2188.53 165.865 L2189.29 163.921 L2178.8 138.412 L2183.32 138.412 L2191.42 158.689 L2199.52 138.412 L2204.04 138.412 L2192.65 166.745 Z" fill="#000000" fill-rule="evenodd" fill-opacity="1" /><path clip-path="url(#clip840)" d="M2211.33 160.402 L2218.97 160.402 L2218.97 134.037 L2210.66 135.703 L2210.66 131.444 L2218.92 129.778 L2223.6 129.778 L2223.6 160.402 L2231.23 160.402 L2231.23 164.338 L2211.33 164.338 L2211.33 160.402 Z" fill="#000000" fill-rule="evenodd" fill-opacity="1" /><polyline clip-path="url(#clip840)" style="stroke:#e26f46; stroke-linecap:butt; stroke-linejoin:round; stroke-width:4; stroke-opacity:1; fill:none" points="
  2010.8,198.898 2154.8,198.898 
  "/>
<path clip-path="url(#clip840)" d="M2192.65 218.585 Q2190.84 223.215 2189.13 224.627 Q2187.42 226.039 2184.54 226.039 L2181.14 226.039 L2181.14 222.474 L2183.64 222.474 Q2185.4 222.474 2186.37 221.64 Q2187.35 220.807 2188.53 217.705 L2189.29 215.761 L2178.8 190.252 L2183.32 190.252 L2191.42 210.529 L2199.52 190.252 L2204.04 190.252 L2192.65 218.585 Z" fill="#000000" fill-rule="evenodd" fill-opacity="1" /><path clip-path="url(#clip840)" d="M2214.54 212.242 L2230.86 212.242 L2230.86 216.178 L2208.92 216.178 L2208.92 212.242 Q2211.58 209.488 2216.16 204.858 Q2220.77 200.205 2221.95 198.863 Q2224.2 196.34 2225.08 194.604 Q2225.98 192.844 2225.98 191.155 Q2225.98 188.4 2224.04 186.664 Q2222.11 184.928 2219.01 184.928 Q2216.81 184.928 2214.36 185.692 Q2211.93 186.455 2209.15 188.006 L2209.15 183.284 Q2211.98 182.15 2214.43 181.571 Q2216.88 180.993 2218.92 180.993 Q2224.29 180.993 2227.48 183.678 Q2230.68 186.363 2230.68 190.854 Q2230.68 192.983 2229.87 194.905 Q2229.08 196.803 2226.98 199.395 Q2226.4 200.067 2223.29 203.284 Q2220.19 206.479 2214.54 212.242 Z" fill="#000000" fill-rule="evenodd" fill-opacity="1" /></svg>
